<svg width="24" height="24" viewBox="0 0 24 24" fill="none" xmlns="http://www.w3.org/2000/svg">
<rect width="24" height="24" rx="5" fill="#D8D8D8"/>
<g clip-path="url(#clip0_136_943)">
<path fill-rule="evenodd" clip-rule="evenodd" d="M12 12.8334C13.9967 12.8334 15.8125 13.4117 17.1483 14.2259C17.815 14.6342 18.385 15.1134 18.7967 15.6342C19.2017 16.1476 19.5 16.7609 19.5 17.4167C19.5 18.1209 19.1575 18.6759 18.6642 19.0717C18.1975 19.4467 17.5817 19.6951 16.9275 19.8684C15.6125 20.2159 13.8575 20.3334 12 20.3334C10.1425 20.3334 8.3875 20.2167 7.0725 19.8684C6.41833 19.6951 5.8025 19.4467 5.33583 19.0717C4.84167 18.6751 4.5 18.1209 4.5 17.4167C4.5 16.7609 4.79833 16.1476 5.20333 15.6342C5.615 15.1134 6.18417 14.6342 6.85167 14.2259C8.1875 13.4117 10.0042 12.8334 12 12.8334ZM12 14.5001C10.3142 14.5001 8.7975 14.9917 7.72 15.6492C7.18083 15.9776 6.77417 16.3342 6.51167 16.6676C6.24167 17.0092 6.16667 17.2676 6.16667 17.4167C6.16667 17.5184 6.1975 17.6259 6.37917 17.7717C6.58667 17.9384 6.9475 18.1109 7.49917 18.2567C8.5975 18.5484 10.1758 18.6667 12 18.6667C13.825 18.6667 15.4025 18.5476 16.5 18.2567C17.0525 18.1109 17.4133 17.9384 17.6208 17.7717C17.8025 17.6259 17.8333 17.5184 17.8333 17.4167C17.8333 17.2667 17.7583 17.0092 17.4892 16.6676C17.2258 16.3342 16.8192 15.9776 16.28 15.6492C15.2025 14.9909 13.6858 14.5001 12 14.5001ZM12 3.66675C13.1051 3.66675 14.1649 4.10573 14.9463 4.88714C15.7277 5.66854 16.1667 6.72835 16.1667 7.83341C16.1667 8.93848 15.7277 9.99829 14.9463 10.7797C14.1649 11.5611 13.1051 12.0001 12 12.0001C10.8949 12.0001 9.83512 11.5611 9.05372 10.7797C8.27232 9.99829 7.83333 8.93848 7.83333 7.83341C7.83333 6.72835 8.27232 5.66854 9.05372 4.88714C9.83512 4.10573 10.8949 3.66675 12 3.66675ZM12 5.33341C11.6717 5.33341 11.3466 5.39808 11.0433 5.52372C10.74 5.64935 10.4644 5.8335 10.2322 6.06565C10.0001 6.29779 9.81594 6.57339 9.6903 6.87671C9.56466 7.18002 9.5 7.50511 9.5 7.83341C9.5 8.16172 9.56466 8.48681 9.6903 8.79012C9.81594 9.09344 10.0001 9.36904 10.2322 9.60118C10.4644 9.83333 10.74 10.0175 11.0433 10.1431C11.3466 10.2688 11.6717 10.3334 12 10.3334C12.663 10.3334 13.2989 10.07 13.7678 9.60118C14.2366 9.13234 14.5 8.49646 14.5 7.83341C14.5 7.17037 14.2366 6.53449 13.7678 6.06565C13.2989 5.59681 12.663 5.33341 12 5.33341Z" fill="#F5F5F5"/>
</g>
<defs>
<clipPath id="clip0_136_943">
<rect width="20" height="20" fill="white" transform="translate(2 2)"/>
</clipPath>
</defs>
</svg>
